<?xml version="1.0" standalone="no"?>
<!DOCTYPE svg PUBLIC "-//W3C//DTD SVG 20010904//EN"
 "http://www.w3.org/TR/2001/REC-SVG-20010904/DTD/svg10.dtd">
<svg version="1.0" xmlns="http://www.w3.org/2000/svg"
 width="850.000000pt" height="691.000000pt" viewBox="0 0 850.000000 691.000000"
 preserveAspectRatio="xMidYMid meet">

<g transform="translate(0.000000,691.000000) scale(0.100000,-0.100000)"
fill="#000000" stroke="none">
<path d="M2295 6293 c-141 -353 -215 -650 -266 -1065 -18 -152 -7 -564 20
-711 77 -432 216 -752 460 -1062 86 -110 270 -286 383 -366 90 -63 461 -282
618 -364 30 -16 67 -38 83 -48 15 -10 27 -14 27 -8 0 5 -12 19 -27 31 -16 12
-120 108 -233 214 -113 105 -293 268 -400 362 -107 94 -202 179 -210 189 -14
17 -13 18 20 11 102 -20 314 -55 317 -52 4 4 -87 76 -184 146 -63 45 -80 67
-44 55 45 -14 311 -61 311 -55 0 4 -21 22 -47 40 -66 47 -286 268 -363 365
-195 246 -328 533 -400 865 -37 167 -51 291 -57 505 -8 295 12 536 67 804 l21
104 -33 28 c-39 33 -53 36 -63 12z"/>
<path d="M6284 6280 l-30 -31 18 -97 c69 -378 85 -572 68 -845 -11 -196 -29
-336 -62 -487 -66 -308 -233 -654 -428 -885 -71 -85 -256 -270 -328 -329 -24
-20 -39 -36 -34 -36 18 0 279 49 296 56 41 16 7 -19 -93 -94 -60 -45 -114 -89
-121 -98 -12 -13 -10 -15 11 -10 26 6 241 43 299 52 l35 5 -36 -33 c-19 -18
-100 -89 -180 -158 -245 -212 -691 -621 -685 -627 2 -3 40 15 83 40 43 24 155
86 248 137 325 179 469 279 624 432 242 239 408 512 523 862 97 295 122 473
123 846 0 291 -9 379 -60 636 -49 244 -197 694 -228 694 -7 0 -26 -14 -43 -30z"/>
<path d="M7063 4379 c-53 -55 -82 -103 -83 -135 0 -11 -15 -51 -34 -90 -64
-131 -78 -197 -74 -347 5 -165 33 -248 132 -399 l17 -26 -83 -64 c-206 -159
-310 -202 -567 -233 -227 -27 -398 -73 -545 -146 -362 -182 -619 -538 -692
-959 -12 -71 -15 -132 -11 -245 7 -228 47 -378 147 -559 156 -282 386 -462
700 -547 75 -21 108 -24 280 -24 183 0 201 2 295 28 588 162 959 737 932 1441
-6 158 -19 232 -83 455 -57 200 -68 267 -60 360 7 78 28 186 47 232 10 24 13
26 52 18 69 -13 203 -10 285 7 109 22 235 90 325 174 40 37 81 84 91 103 14
24 36 42 80 63 81 39 100 67 104 157 l4 72 -39 36 c-27 25 -54 39 -91 47 -89
20 -106 17 -147 -30 l-38 -41 7 -92 c6 -84 4 -93 -16 -121 -124 -166 -325
-248 -523 -215 -80 14 -198 68 -203 93 -2 11 12 27 38 44 l40 27 76 -18 c141
-33 269 2 366 100 143 145 141 379 -4 524 -144 143 -391 142 -532 -3 -111
-115 -135 -285 -61 -432 l33 -66 -32 -29 c-17 -16 -40 -28 -51 -26 -25 3 -79
107 -101 197 -28 111 -3 310 44 348 9 6 29 12 46 12 38 0 120 81 129 128 4 18
16 51 27 74 l21 43 -29 25 c-127 113 -145 116 -219 39z m550 -352 c148 -63
195 -262 89 -379 -75 -83 -192 -103 -293 -50 -219 114 -134 441 114 442 32 0
72 -6 90 -13z m-425 -789 c23 -13 42 -29 42 -36 0 -7 -9 -45 -19 -85 -11 -40
-25 -121 -31 -180 -13 -132 -2 -233 45 -397 33 -116 53 -195 77 -305 20 -93
17 -409 -5 -515 -55 -262 -156 -463 -316 -632 -161 -170 -333 -269 -544 -314
-112 -23 -303 -19 -417 10 -283 73 -495 245 -628 512 -126 253 -147 527 -61
809 116 377 400 659 774 769 50 14 155 35 235 46 265 37 335 56 485 132 70 36
179 109 250 166 28 23 55 41 60 42 6 0 29 -10 53 -22z"/>
<path d="M7445 3966 c-40 -17 -82 -67 -96 -115 -35 -117 72 -235 195 -217 88
14 147 74 154 160 9 106 -68 186 -178 185 -25 0 -59 -6 -75 -13z m173 -46 c55
-34 77 -112 48 -168 -51 -99 -180 -108 -236 -17 -37 60 -19 153 38 187 37 24
109 23 150 -2z"/>
<path d="M6322 2392 l-143 -3 1 -137 c1 -75 1 -144 0 -152 0 -13 -23 -15 -146
-15 l-146 0 2 -125 c4 -167 3 -160 15 -161 5 0 67 0 137 1 84 1 128 -2 133
-10 4 -6 6 -74 6 -151 l-2 -139 150 0 150 0 3 148 3 147 125 2 c173 2 167 1
167 18 0 8 -5 15 -10 15 -5 0 -6 12 -2 28 8 31 7 213 -1 222 -10 9 -254 5
-254 -4 0 -6 -7 -1 -15 10 -11 14 -14 52 -15 161 0 78 -3 143 -7 145 -5 2 -72
2 -151 0z m-175 -578 c-3 -3 -12 -4 -19 -1 -8 3 -5 6 6 6 11 1 17 -2 13 -5z
m315 -16 c-7 -7 -12 -8 -12 -2 0 14 12 26 19 19 2 -3 -1 -11 -7 -17z"/>
<path d="M2982 4012 c-8 -5 7 -14 43 -26 97 -30 139 -54 176 -98 42 -51 108
-150 175 -267 82 -140 157 -191 315 -215 52 -8 106 -19 120 -25 59 -22 132
-108 193 -227 28 -54 28 -55 26 35 -4 167 -93 366 -229 514 -147 159 -335 256
-580 302 -89 16 -218 20 -239 7z m650 -301 l32 -20 -27 -10 c-15 -6 -27 -18
-27 -28 0 -36 56 -99 128 -144 17 -11 32 -24 32 -29 0 -19 -80 -22 -132 -5
-66 22 -92 45 -123 109 -24 51 -58 184 -49 197 5 8 112 -38 166 -70z"/>
<path d="M5390 4000 c-226 -50 -389 -138 -533 -290 -154 -160 -228 -318 -243
-518 l-6 -87 53 89 c97 161 144 193 308 215 155 20 231 79 321 251 30 57 78
136 108 176 47 65 62 78 133 113 44 22 95 43 114 47 64 12 25 24 -73 23 -55 0
-134 -9 -182 -19z m-210 -241 c0 -37 -31 -141 -56 -191 -14 -27 -39 -57 -57
-68 -44 -27 -133 -44 -171 -33 l-30 8 59 46 c92 69 131 140 85 154 -35 11 -22
25 63 65 95 46 107 48 107 19z"/>
<path d="M5075 2564 l-170 -95 -87 -157 c-47 -86 -129 -242 -181 -347 -52
-104 -109 -214 -126 -243 -17 -29 -31 -55 -31 -57 0 -10 -97 -155 -150 -225
-32 -41 -102 -118 -157 -171 -274 -266 -637 -461 -986 -531 -147 -29 -403 -31
-582 -4 -207 31 -494 111 -669 187 -50 21 -92 37 -94 34 -9 -9 181 -123 334
-201 255 -128 556 -220 847 -259 137 -17 460 -20 587 -5 171 21 389 84 551
157 280 128 554 372 740 658 74 113 71 101 54 230 -19 143 -19 229 -1 366 32
238 124 484 249 666 32 45 57 85 57 88 0 11 -19 1 -185 -91z"/>
<path d="M4191 2580 c-68 -25 -131 -66 -131 -84 0 -32 164 -194 235 -232 l34
-18 75 58 c73 56 157 140 177 177 7 14 2 23 -24 43 -65 49 -126 70 -222 73
-71 3 -101 -1 -144 -17z"/>
<path d="M3893 1876 c-70 -33 -121 -82 -288 -276 -241 -280 -375 -394 -578
-490 -114 -54 -239 -93 -358 -111 -105 -16 -83 -29 52 -29 217 0 502 43 694
105 129 42 310 127 409 192 135 88 287 254 337 369 17 38 20 60 16 111 -8 108
-57 153 -167 153 -48 0 -79 -7 -117 -24z"/>
</g>
</svg>
