<?xml version="1.0" standalone="no"?>
<!DOCTYPE svg PUBLIC "-//W3C//DTD SVG 20010904//EN"
 "http://www.w3.org/TR/2001/REC-SVG-20010904/DTD/svg10.dtd">
<svg version="1.0" xmlns="http://www.w3.org/2000/svg"
 width="850.000000pt" height="166.000000pt" viewBox="0 0 850.000000 166.000000"
 preserveAspectRatio="xMidYMid meet">

<g transform="translate(0.000000,166.000000) scale(0.100000,-0.100000)"
fill="#000000" stroke="none">
<path d="M6230 1298 c-56 -19 -153 -122 -178 -191 -48 -126 -21 -285 62 -371
68 -69 124 -91 236 -91 84 0 102 3 151 28 32 15 76 44 99 65 l41 37 -59 65
-60 65 -34 -31 c-43 -41 -70 -54 -113 -56 -68 -2 -113 57 -114 152 -2 93 40
170 92 170 36 0 74 -35 81 -75 l7 -35 89 0 90 0 0 135 0 135 -79 0 c-71 0 -79
-2 -84 -21 l-6 -21 -30 23 c-37 27 -134 35 -191 17z"/>
<path d="M5306 1280 c-60 -23 -125 -84 -157 -148 -21 -41 -24 -61 -24 -157 0
-96 3 -116 24 -155 29 -57 76 -107 121 -130 44 -22 140 -42 185 -39 29 3 41
-3 73 -34 109 -107 262 -44 262 108 l0 45 -40 0 c-38 0 -40 -2 -40 -30 0 -16
-5 -30 -10 -30 -23 0 -21 34 4 85 81 159 42 377 -82 456 -25 16 -62 34 -82 39
-59 17 -179 11 -234 -10z m172 -152 c25 -28 37 -58 46 -122 7 -45 6 -48 -11
-40 -18 9 -121 11 -158 3 -17 -3 -20 1 -18 26 4 63 15 95 39 125 31 37 71 40
102 8z m-18 -269 c15 -28 6 -49 -22 -49 -40 0 -54 15 -40 44 14 32 47 34 62 5z"/>
<path d="M6890 1236 c0 -55 3 -64 20 -69 19 -5 20 -14 20 -191 0 -175 -1 -186
-19 -186 -19 0 -30 -41 -27 -105 l1 -30 133 -3 132 -3 0 71 c0 67 -1 70 -24
70 -22 0 -23 5 -30 77 -9 106 -8 161 3 145 5 -8 30 -92 57 -188 l48 -174 102
0 101 0 41 154 c59 217 61 220 61 94 l1 -108 -25 0 c-24 0 -25 -2 -25 -70 l0
-70 155 0 155 0 0 70 c0 68 -1 70 -25 70 l-25 0 2 188 c3 185 3 187 26 190 20
3 22 9 22 68 l0 64 -183 0 -183 0 -34 -140 c-19 -77 -37 -140 -41 -140 -4 0
-9 8 -11 18 -3 9 -20 72 -38 140 l-33 122 -178 0 -179 0 0 -64z"/>
<path d="M847 1264 c-4 -4 -7 -31 -7 -61 0 -50 1 -53 25 -53 l25 0 0 -195 0
-195 -25 0 c-24 0 -25 -3 -25 -60 l0 -60 160 0 160 0 0 60 0 60 -45 0 -45 0 0
55 0 55 85 0 85 0 0 60 0 60 -87 0 -88 0 3 80 4 80 75 0 c64 0 74 -2 69 -16
-3 -8 -3 -27 0 -40 6 -24 9 -25 78 -22 l71 3 3 89 c2 63 -1 92 -10 97 -15 10
-502 12 -511 3z"/>
<path d="M1647 1263 c-4 -3 -7 -30 -7 -60 0 -50 1 -53 25 -53 l25 0 0 -195 0
-195 -25 0 c-24 0 -25 -3 -25 -60 l0 -60 265 0 265 0 0 100 0 100 -75 0 -75 0
0 -40 0 -40 -75 0 -75 0 0 75 0 75 85 0 86 0 -3 58 -3 57 -82 3 -83 3 0 59 0
58 75 4 74 3 3 -40 3 -40 70 0 70 0 0 95 0 95 -256 3 c-140 1 -258 -1 -262 -5z"/>
<path d="M2460 1215 c0 -52 1 -55 25 -55 l25 0 0 -205 0 -205 -25 0 c-24 0
-25 -3 -25 -55 l0 -55 129 0 c143 0 140 -1 133 68 -4 38 -7 42 -32 42 -26 0
-28 3 -34 53 -3 28 -4 79 -1 112 2 33 4 64 5 69 0 4 48 -63 106 -150 58 -88
113 -167 122 -177 13 -15 30 -17 101 -15 l86 3 3 258 2 257 31 0 c30 0 30 0
27 53 l-3 52 -127 3 -128 3 0 -55 c0 -52 1 -55 28 -58 l27 -3 3 -99 c1 -55 -1
-103 -6 -108 -4 -4 -45 48 -91 116 -45 69 -96 143 -112 166 l-29 40 -120 0
-120 0 0 -55z"/>
<path d="M3420 1215 c0 -52 1 -55 25 -55 l25 0 0 -205 0 -205 -25 0 c-24 0
-25 -3 -25 -55 l0 -56 133 3 132 3 0 50 c0 49 -1 50 -31 53 -29 3 -32 7 -39
49 -3 25 -3 78 0 118 l7 74 117 -175 116 -174 92 0 93 0 0 260 0 260 31 0 30
0 -3 53 -3 52 -124 3 c-72 1 -127 -1 -130 -7 -4 -5 -5 -30 -3 -55 4 -40 7 -45
30 -48 27 -3 27 -3 30 -102 1 -55 -1 -103 -5 -107 -4 -4 -46 49 -93 118 -47
70 -97 144 -113 165 l-27 38 -120 0 -120 0 0 -55z"/>
<path d="M4380 1209 c0 -60 1 -61 25 -57 l25 5 0 -198 0 -199 -25 0 c-24 0
-25 -3 -25 -60 l0 -60 265 0 265 0 0 100 0 100 -75 0 -75 0 0 -40 0 -40 -75 0
-75 0 0 75 0 74 83 3 82 3 0 55 0 55 -80 1 -80 0 -3 62 -3 62 75 0 75 0 3 -37
3 -38 70 0 70 0 0 95 0 95 -262 3 -263 2 0 -61z"/>
</g>
</svg>
